<svg width="187" height="39" viewBox="0 0 187 39" fill="none" xmlns="http://www.w3.org/2000/svg">
<g filter="url(#filter0_d_5_26)">
<mask id="path-1-outside-1_5_26" maskUnits="userSpaceOnUse" x="4" y="0" width="179" height="31" fill="black">
<rect fill="white" x="4" width="179" height="31"/>
<path d="M24.688 10.544C24.688 8.112 23.888 6.256 22.256 4.944C20.752 3.824 18.736 3.248 16.208 3.248C12.752 3.248 9.36 4.24 6 6.192L6.704 6.736L6.512 8.176L7.28 7.664L8.176 7.536L7.024 8.72H6.608L7.344 9.52C6.96 10.544 6.736 11.76 6.704 13.168C7.472 12.592 8.24 12.112 9.008 11.696C9.168 15.504 9.456 19.28 9.904 22.96L8.784 23.152L9.36 25.424L9.584 25.264L10.704 25.04L9.36 26.448L8.336 26.416L8.304 26.448L8.144 27.632C11.28 27.216 14.192 26 16.848 24.016C19.536 22 21.616 19.568 23.056 16.72C24.144 14.544 24.688 12.496 24.688 10.544ZM9.264 8.592L8.464 8.56L8.688 8.176L8.88 8.144L9.424 7.76L10.128 7.632L9.264 8.592ZM18.896 13.264C18.896 14.672 18.416 16.112 17.424 17.552C16.592 18.864 15.536 19.952 14.256 20.88C14.256 17.264 14.448 13.584 14.832 9.904C17.552 9.872 18.896 10.992 18.896 13.264ZM13.104 24.464H12.624L12.752 24.272C12.848 24.272 12.976 24.208 13.2 24.048L13.648 23.952L13.104 24.464ZM11.28 24.464H10.64L10.864 24.176H10.992L11.408 23.856L12.016 23.76L11.28 24.464Z"/>
<path d="M45.5462 23.568C45.5142 22.896 45.4503 22.416 45.4183 22.064C42.5063 21.072 39.5623 19.856 36.5863 18.352C41.0343 15.248 43.2743 11.856 43.2743 8.144C43.2743 6.352 42.6023 4.976 41.2583 4.016C40.0423 3.184 38.5063 2.768 36.6182 2.768C34.7622 2.768 32.8102 3.184 30.7302 3.984C28.7782 4.688 26.9862 5.648 25.4182 6.864L24.7143 7.344V7.856L24.5543 8.624C24.5543 8.656 24.5543 8.688 24.5543 8.688C24.4583 8.72 24.8423 8.752 25.4503 8.592C25.4183 8.944 26.1542 8.816 26.2502 9.04C26.2822 9.104 26.2822 9.168 26.2822 9.2C26.2822 9.264 26.0903 9.392 25.7383 9.616C25.3863 9.808 25.1943 9.936 25.1943 9.968C25.1943 10 25.1942 10.032 25.2262 10.064L25.0662 10.16C25.1622 10.32 25.4503 10.512 25.4503 10.544C25.4503 10.576 25.4183 10.608 25.3223 10.64L25.4823 11.312L25.5783 11.184L25.8663 11.152L26.5382 10.672L27.5623 10.544L26.2822 11.76L25.6103 11.728C25.7383 12.336 25.8343 12.784 25.9303 13.072C26.5703 12.528 27.3063 12.016 28.1063 11.472C28.2343 15.504 28.6823 20.752 29.4503 27.216C29.7383 26.96 29.9303 26.768 30.0903 26.672L30.3783 26.8L30.4422 26.576L30.2822 25.776L30.4422 24.752L31.0823 26.096L31.5942 25.296L32.5223 26.256C32.9383 26.064 33.2262 25.936 33.3862 25.84C33.2902 24.624 33.2582 23.696 33.2262 23.088C34.9862 23.76 37.0342 24.4 39.3382 25.04C40.3302 25.328 42.3783 25.904 45.4823 26.736L45.4183 26.416H45.3862L45.1623 26.16L44.2343 25.872L43.3703 25.104C44.5543 25.264 45.1943 25.36 45.3543 25.36C45.1623 24.496 45.0343 23.856 44.9703 23.376L45.5462 23.568ZM37.8663 10.064C37.8663 11.44 36.4262 13.04 33.5142 14.8C33.5142 13.872 33.6743 11.792 34.0263 8.592C34.6983 8.4 35.3063 8.304 35.7863 8.304C37.1623 8.304 37.8663 8.88 37.8663 10.064ZM27.3383 8.4L26.2502 8.336L26.5702 7.792H26.8902L27.5942 7.344L28.6182 7.216L27.3383 8.4ZM28.2343 9.968L27.6583 9.936L27.8183 9.648C27.9463 9.648 28.1383 9.552 28.4263 9.392L28.9062 9.328L28.2343 9.968ZM41.6743 24.752L41.5462 24.624L41.0343 24.464L40.5542 24.08L41.6743 24.208L42.0263 24.72L41.6743 24.752ZM30.2502 22.64L29.9942 22.384L30.0263 22.192L29.9303 21.744L30.0263 21.2L30.4422 22.064L30.2502 22.64ZM31.4662 24.432L31.1462 24.112L31.2103 23.888L31.0823 23.28L31.2103 22.608L31.7222 23.728L31.4662 24.432Z"/>
<path d="M60.8298 2.256C58.7177 2.768 56.9257 3.248 55.4217 3.664L54.9417 3.28C51.5817 4.336 48.9258 5.392 46.9098 6.416L44.5737 7.792V7.984H45.0537C44.9257 8.272 44.9578 9.488 44.8298 9.776C45.0538 10.128 45.2137 10.384 45.3737 10.544L46.0138 10.032L46.6857 10.128L46.4297 10.416H46.2378L45.7578 10.672L45.5658 10.864L44.8618 12.144V13.168C45.5978 12.848 46.3338 12.496 47.0698 12.08C47.0698 13.072 47.1018 14.064 47.1978 15.056C46.7818 15.344 46.4298 15.568 46.1418 15.792V17.168L46.9738 17.776L46.2057 19.376C46.5257 19.248 46.9418 19.056 47.4538 18.768C47.6138 20.784 47.8377 22.8 48.0938 24.784L47.7098 25.008C47.8058 25.296 47.9338 25.52 48.0298 25.68C47.9338 25.84 47.8377 26.064 47.7417 26.384C47.9657 26.512 48.1898 26.576 48.3498 26.608L48.3818 26.736C47.9018 27.184 47.6777 27.856 47.6777 28.72C48.9897 27.92 50.2057 27.184 51.3577 26.576L51.4858 26.672C51.8698 26.544 52.1578 26.448 52.3818 26.416L52.3498 26.032C52.7978 25.84 53.1178 25.68 53.3097 25.552C55.0378 24.72 56.9257 24.016 59.0057 23.472L59.2617 22.704L58.8457 22.192L59.3258 22.032L59.3577 21.52H59.1978L58.4618 21.904L57.5018 21.968L58.8138 20.912L59.3898 20.976C59.3898 20.816 59.4218 20.592 59.4538 20.304L58.5578 20.592L58.7817 19.696C56.6058 20.464 54.4618 21.392 52.3498 22.448C52.3498 20.112 52.4138 18.096 52.5098 16.4C54.8458 15.536 56.9897 14.8 59.0057 14.192C59.1017 12.752 59.1978 11.472 59.3577 10.352C58.3018 10.64 57.2777 10.928 56.3177 11.248L56.2858 10.64C54.7818 11.312 53.6298 11.792 52.8618 12.08L53.1497 9.392C55.1657 8.656 57.5337 7.92 60.2537 7.216C60.3497 6.832 60.5098 6.288 60.7978 5.616L59.8377 5.872L60.2858 4.848L59.8698 5.136L59.2617 5.168L60.0618 4.496L60.4458 4.592C60.5418 4.336 60.5738 3.952 60.6058 3.408C60.6378 2.864 60.7017 2.48 60.8298 2.256ZM48.5098 8.944H48.2537L47.5177 9.36L46.5578 9.424L47.8377 8.336L48.8937 8.464L48.5098 8.944ZM56.2537 23.152H56.0617L55.6777 23.376L55.0698 23.408L55.8698 22.8L56.4458 22.896L56.2537 23.152Z"/>
<path d="M86.0977 3.216C85.7457 3.216 85.2018 3.376 84.5298 3.728C83.8578 4.08 83.3138 4.24 82.8978 4.24C82.6098 4.24 82.3538 3.44 82.0658 3.312C81.1058 3.184 80.3378 3.088 79.7298 3.056C78.8658 6.288 78.3218 10.32 78.0338 15.152C76.8818 12.496 76.0177 9.904 75.4737 7.408L74.7057 7.472L74.6097 6.032C73.9697 5.808 73.4898 5.648 73.1698 5.488C70.7058 9.36 69.0737 12.176 68.3377 14L68.2738 12.976C68.1458 11.408 68.0817 9.168 68.0817 6.288L67.2817 6.736L67.3778 7.184L67.1217 8.144L66.4818 6.48L66.9297 5.552V4.944C64.0177 6.128 62.5137 6.704 62.4497 6.736C62.3857 7.44 62.3858 7.856 62.4178 7.984L61.2018 8.912C62.0338 14.896 63.6337 21.104 66.0337 27.568C66.7697 27.408 67.3777 27.28 67.9217 27.248C67.6977 26.8 67.5058 26.416 67.3778 26.064L68.1458 24.848C68.6258 25.552 68.9138 25.968 69.0098 26.064L69.4897 25.744L68.8818 24.784L69.1377 23.792L69.5858 24.24L69.5537 24.464L69.8737 25.392L70.3538 24.912L70.1937 24.24C71.3777 24.528 72.0818 24.752 72.2738 24.912C72.3058 21.712 72.3697 19.76 72.4017 19.088C72.5617 16.88 72.9777 15.024 73.6817 13.488C73.9057 16.784 74.8338 20.816 76.4658 25.52L77.3617 25.36L76.9137 24.624L77.1058 23.632L77.5537 24.08L77.4898 24.336L77.8098 25.072L77.8737 25.264C77.9057 25.264 78.6738 25.008 80.2098 24.528C81.1698 24.272 81.7778 24.112 82.0338 24.08C81.9698 23.696 81.9378 23.28 81.9058 22.8L82.1298 22.832C83.4418 14 84.8498 7.472 86.3857 3.216H86.0977ZM82.1618 4.784L82.0338 5.68L81.5537 6.448L81.4258 4.72L82.1298 3.984L82.2897 4.592L82.1618 4.784ZM66.2257 9.232L66.1297 9.84L65.7137 10.416L65.6497 9.168L66.2257 8.624L66.3538 9.04L66.2257 9.232ZM78.0658 22.32L77.2978 21.2L77.4577 20.4L77.7777 20.752V20.944L78.0658 21.552V22.32ZM64.8818 10.48L64.8498 10.928L64.5617 11.28L64.5298 10.448L64.9137 10.128L64.9777 10.384L64.8818 10.48Z"/>
<path d="M110.711 5.04C110.711 4.688 110.615 3.728 110.615 3.312C110.615 3.152 110.615 3.024 110.647 2.864C110.231 2.96 109.879 3.024 109.527 3.056C109.623 2.576 109.719 2.224 109.783 2C107.511 2.672 105.207 3.568 102.807 4.656L96.3432 7.44L96.7272 8.272C96.6312 8.528 96.5993 8.976 96.5993 9.648L97.3353 9.264L98.3593 9.232L97.0153 10.32L96.5673 10.224L96.5033 10.416L97.3353 10.864C97.0793 11.184 96.8553 11.44 96.6633 11.632L96.4392 13.296C98.5192 12.208 100.439 11.248 102.231 10.384C102.583 13.936 102.743 17.872 102.743 22.224C100.727 21.712 98.7753 20.976 96.8873 20.048C96.8553 20.176 96.8552 20.24 96.8552 20.24C96.8552 20.496 97.1432 21.2 97.1432 21.456C97.1432 21.552 96.8233 21.872 96.1513 22.416L96.3112 22.672L97.1113 23.056L97.6872 23.824L96.0232 23.312L95.8313 23.792L95.0312 24.528C98.3913 26.416 102.263 27.44 106.583 27.632L106.711 27.28C107.575 18.608 108.055 12.336 108.119 8.4C109.079 8.208 109.783 8.048 110.231 7.92L110.519 7.056L110.071 6.416L110.615 6.256L110.679 5.584H110.359L109.623 6.032L108.599 6.096L109.943 4.944L110.711 5.04ZM108.023 6.64H107.895L107.543 6.832L107.095 6.864L107.671 6.352L108.151 6.416L108.023 6.64ZM107.255 5.872H106.999L106.487 6.128L105.783 6.16L106.743 5.424L107.511 5.488L107.255 5.872ZM98.1992 23.056L97.8473 22.32L98.3272 22.352L98.4232 22.544L98.9672 22.832L99.3832 23.472L98.1992 23.056ZM98.9993 24.624L98.6472 24.112L98.9672 24.08L99.1273 24.208L99.5752 24.368L99.9593 24.752L98.9993 24.624Z"/>
<path d="M125.875 12.976C124.755 13.328 124.179 13.488 124.147 13.488C123.667 9.872 123.379 6.352 123.315 2.992C122.387 3.408 121.715 3.824 121.299 4.176L120.659 4.88C120.627 4.912 120.563 4.912 120.499 4.912C120.403 4.912 120.211 4.656 119.987 4.656C120.083 4.656 119.731 4.752 118.995 4.944C119.091 4.432 119.219 3.888 119.347 3.344L118.035 3.856C117.459 4.24 117.075 4.528 116.915 4.752L117.075 5.2L116.915 5.456L116.851 6.352L116.339 7.312V4.848C115.731 5.072 115.187 5.168 114.739 5.168C113.779 5.456 113.075 5.712 112.595 5.904C111.923 9.904 111.571 12.56 111.571 13.936C111.571 14.416 111.827 15.536 111.827 16.016C111.827 16.656 111.283 16.88 111.283 17.264C111.059 18.576 110.931 20.368 110.899 22.64C110.867 25.488 110.835 27.28 110.771 28.08H110.835L111.635 26.32C111.571 26.928 111.699 27.216 112.051 27.216C112.275 27.216 112.819 26.864 113.715 26.192C113.683 26.48 113.651 26.736 113.651 26.96C114.195 26.608 114.643 26.32 114.963 26.16C115.123 24.816 115.379 23.024 115.731 20.784C117.619 19.824 119.027 19.184 119.955 18.896C120.435 20.912 121.011 23.056 121.619 25.36L123.507 24.592C123.411 24.112 123.379 23.824 123.379 23.728L123.891 23.6C123.955 23.376 124.051 23.248 124.179 23.152L123.795 22.448L124.019 21.648L124.307 21.904L124.243 22.128L124.435 22.64L124.371 23.056C124.531 23.024 124.723 23.024 124.979 23.056C125.299 23.088 125.491 23.12 125.555 23.12C125.651 23.12 125.747 23.088 125.843 23.056C125.331 20.656 124.947 18.736 124.723 17.296L125.363 17.072C125.587 15.248 125.779 13.904 125.875 12.976ZM121.011 7.12L120.467 6.16L120.723 5.424L121.011 5.68L120.979 5.872L121.139 6.384L121.011 7.12ZM115.507 8.176V8.688L115.219 9.168L115.123 8.272L115.507 7.728L115.603 8.048L115.507 8.176ZM116.563 16.176C116.659 15.184 116.883 14.032 117.171 12.688L118.067 9.232C118.291 10.928 118.611 12.848 119.059 14.928L116.563 16.176Z"/>
<path d="M139.67 6.576L139.094 7.312L138.39 7.248L138.71 6.736L138.902 6.704L139.446 6.256L139.798 6.16L140.086 5.488L138.582 5.232C139.126 4.112 139.382 3.472 139.382 3.28C139.382 3.152 139.318 2.992 139.222 2.832C139.062 2.544 138.934 2.384 138.902 2.32C136.054 3.664 133.462 5.36 131.094 7.408C127.99 10.096 126.422 12.592 126.422 14.864C126.422 15.792 126.806 16.656 127.606 17.392C128.022 17.808 128.822 18.352 129.974 19.056C130.39 18.96 130.678 18.896 130.902 18.896C131.126 18.896 131.286 19.024 131.414 19.28C131.606 19.632 131.862 19.92 132.214 20.08C132.822 20.336 133.43 20.624 134.038 20.912C134.806 21.36 135.19 21.872 135.19 22.416C135.19 23.504 133.814 25.008 131.094 26.928L132.598 27.024L132.726 26.832L132.918 26.8L133.494 26.384L134.166 26.16L133.142 27.216L132.854 27.248L133.078 27.952C134.262 27.824 134.006 28.336 134.454 28.688C135.99 27.504 137.27 26.256 138.262 24.944C139.638 23.248 140.31 21.68 140.31 20.24C140.31 18.8 139.766 17.68 138.71 16.848C138.358 16.56 137.398 16.048 135.766 15.28C134.71 14.8 134.166 14.224 134.166 13.616C134.166 11.888 136.342 9.712 140.694 7.088L139.67 6.576ZM136.47 7.344H135.926L136.214 7.024H136.342L136.758 6.704L137.302 6.608L136.47 7.344ZM135.19 8.592H134.806L134.966 8.336H135.094L135.382 8.112L135.766 8.048L135.19 8.592ZM135.83 25.264L135.414 25.392L135.51 25.104C135.862 24.88 136.118 24.688 136.278 24.528L135.83 25.264ZM134.646 26.96L134.166 27.024L134.326 26.704L134.486 26.672L134.838 26.416L135.318 26.256L134.646 26.96Z"/>
<path d="M162.961 11.92C162.961 10.16 162.577 8.56 161.809 7.12L161.489 7.504L159.857 6.864L160.209 7.504L159.409 7.664L159.473 8.176L160.017 8.4L160.241 9.072L159.825 8.976L159.761 8.848L159.313 8.496L159.217 8.304L157.649 8.4L156.433 9.232L157.201 8.016L158.001 7.6V7.536L157.265 6.992L156.817 6.096L158.353 6.896L158.545 7.408L158.769 7.248V5.904L159.217 5.936L159.121 5.776L158.417 5.232L158.001 4.336L159.473 5.136L159.761 5.968L160.209 6L159.473 4.56C158.289 3.696 156.913 3.28 155.313 3.28C151.665 3.28 148.433 4.976 145.585 8.4C142.865 11.664 141.521 15.152 141.521 18.864C141.521 21.648 142.321 23.856 143.953 25.456L143.665 24.848L145.201 25.616L145.489 26.576C146.673 27.216 147.921 27.536 149.265 27.536C152.753 27.536 155.953 25.808 158.833 22.32C161.585 18.992 162.961 15.536 162.961 11.92ZM158.929 10.128L158.897 10L158.577 9.776L158.321 9.328L159.089 9.712L159.249 10.192L158.929 10.128ZM156.337 7.696L156.273 7.536L155.793 7.184L155.473 6.608L156.529 7.12L156.689 7.76L156.337 7.696ZM157.809 14.448C157.809 16.432 157.105 18.32 155.665 20.144C154.161 22.032 152.401 22.992 150.417 22.992C149.137 22.992 148.113 22.512 147.377 21.584C146.673 20.72 146.321 19.632 146.321 18.384C146.321 16.368 147.057 14.448 148.497 12.688C150.033 10.8 151.793 9.84 153.745 9.84C156.273 9.84 157.809 11.856 157.809 14.448ZM146.609 23.12L146.545 22.992L146.129 22.672L145.873 22.16L146.737 22.608L146.897 23.184L146.609 23.12ZM146.897 25.424L146.833 25.296L146.481 24.976L146.193 24.464L147.089 24.912L147.249 25.52L146.897 25.424ZM145.137 24.624L145.041 24.368L144.337 23.856L143.889 22.992L145.425 23.728L145.745 24.752L145.137 24.624Z"/>
<path d="M181.142 5.616C180.854 5.776 180.566 5.872 180.278 5.904C180.31 5.424 180.374 4.816 180.47 4.08L176.758 4.56L176.534 5.712C176.246 5.872 175.926 6.064 175.51 6.256C175.414 8.272 175.35 10.032 175.35 11.472C175.35 11.984 175.35 12.752 175.382 13.808C175.414 14.864 175.446 15.632 175.446 16.176C173.878 13.936 172.118 10.288 170.166 5.232C169.942 5.712 169.814 6 169.718 6.128L168.854 6.512C168.854 5.648 168.886 5.008 168.918 4.56C168.374 4.656 167.99 4.752 167.702 4.784L167.894 5.008L167.798 5.296L167.894 6.096L167.574 7.056L167.062 5.456L167.382 4.848C166.422 5.072 165.718 5.2 165.238 5.296C165.142 6.096 165.11 6.512 165.11 6.544C164.694 6.832 164.342 7.056 164.118 7.184C164.31 13.776 165.046 20.464 166.294 27.28L167.798 27.376C167.67 26.96 167.574 26.544 167.478 26.064L168.15 25.008L168.758 26.512C169.046 26.288 169.43 25.968 169.942 25.616C169.526 22.224 169.27 19.376 169.238 17.104C170.71 19.056 173.046 21.552 176.214 24.528L176.278 25.264L177.078 25.36L177.782 25.456L177.558 24.176L178.006 23.568L177.782 22.8L178.294 21.84L178.614 22.384L178.518 22.64L178.614 23.504L178.518 23.792C178.646 24.208 178.742 24.496 178.806 24.624C179.35 24.336 179.766 24.08 180.054 23.888C179.958 22.448 179.926 21.04 179.926 19.6C179.926 15.376 180.342 10.704 181.142 5.616ZM166.774 9.328L166.39 8.176L166.774 7.536L166.966 7.888L166.902 8.08L166.966 8.688L166.774 9.328ZM176.854 22.384L176.502 21.264L176.854 20.592L177.11 20.944L177.014 21.104L177.11 21.68L176.854 22.384Z"/>
</mask>
<path d="M24.688 10.544C24.688 8.112 23.888 6.256 22.256 4.944C20.752 3.824 18.736 3.248 16.208 3.248C12.752 3.248 9.36 4.24 6 6.192L6.704 6.736L6.512 8.176L7.28 7.664L8.176 7.536L7.024 8.72H6.608L7.344 9.52C6.96 10.544 6.736 11.76 6.704 13.168C7.472 12.592 8.24 12.112 9.008 11.696C9.168 15.504 9.456 19.28 9.904 22.96L8.784 23.152L9.36 25.424L9.584 25.264L10.704 25.04L9.36 26.448L8.336 26.416L8.304 26.448L8.144 27.632C11.28 27.216 14.192 26 16.848 24.016C19.536 22 21.616 19.568 23.056 16.72C24.144 14.544 24.688 12.496 24.688 10.544ZM9.264 8.592L8.464 8.56L8.688 8.176L8.88 8.144L9.424 7.76L10.128 7.632L9.264 8.592ZM18.896 13.264C18.896 14.672 18.416 16.112 17.424 17.552C16.592 18.864 15.536 19.952 14.256 20.88C14.256 17.264 14.448 13.584 14.832 9.904C17.552 9.872 18.896 10.992 18.896 13.264ZM13.104 24.464H12.624L12.752 24.272C12.848 24.272 12.976 24.208 13.2 24.048L13.648 23.952L13.104 24.464ZM11.28 24.464H10.64L10.864 24.176H10.992L11.408 23.856L12.016 23.76L11.28 24.464Z" fill="#ED9B33"/>
<path d="M45.5462 23.568C45.5142 22.896 45.4503 22.416 45.4183 22.064C42.5063 21.072 39.5623 19.856 36.5863 18.352C41.0343 15.248 43.2743 11.856 43.2743 8.144C43.2743 6.352 42.6023 4.976 41.2583 4.016C40.0423 3.184 38.5063 2.768 36.6182 2.768C34.7622 2.768 32.8102 3.184 30.7302 3.984C28.7782 4.688 26.9862 5.648 25.4182 6.864L24.7143 7.344V7.856L24.5543 8.624C24.5543 8.656 24.5543 8.688 24.5543 8.688C24.4583 8.72 24.8423 8.752 25.4503 8.592C25.4183 8.944 26.1542 8.816 26.2502 9.04C26.2822 9.104 26.2822 9.168 26.2822 9.2C26.2822 9.264 26.0903 9.392 25.7383 9.616C25.3863 9.808 25.1943 9.936 25.1943 9.968C25.1943 10 25.1942 10.032 25.2262 10.064L25.0662 10.16C25.1622 10.32 25.4503 10.512 25.4503 10.544C25.4503 10.576 25.4183 10.608 25.3223 10.64L25.4823 11.312L25.5783 11.184L25.8663 11.152L26.5382 10.672L27.5623 10.544L26.2822 11.76L25.6103 11.728C25.7383 12.336 25.8343 12.784 25.9303 13.072C26.5703 12.528 27.3063 12.016 28.1063 11.472C28.2343 15.504 28.6823 20.752 29.4503 27.216C29.7383 26.96 29.9303 26.768 30.0903 26.672L30.3783 26.8L30.4422 26.576L30.2822 25.776L30.4422 24.752L31.0823 26.096L31.5942 25.296L32.5223 26.256C32.9383 26.064 33.2262 25.936 33.3862 25.84C33.2902 24.624 33.2582 23.696 33.2262 23.088C34.9862 23.76 37.0342 24.4 39.3382 25.04C40.3302 25.328 42.3783 25.904 45.4823 26.736L45.4183 26.416H45.3862L45.1623 26.16L44.2343 25.872L43.3703 25.104C44.5543 25.264 45.1943 25.36 45.3543 25.36C45.1623 24.496 45.0343 23.856 44.9703 23.376L45.5462 23.568ZM37.8663 10.064C37.8663 11.44 36.4262 13.04 33.5142 14.8C33.5142 13.872 33.6743 11.792 34.0263 8.592C34.6983 8.4 35.3063 8.304 35.7863 8.304C37.1623 8.304 37.8663 8.88 37.8663 10.064ZM27.3383 8.4L26.2502 8.336L26.5702 7.792H26.8902L27.5942 7.344L28.6182 7.216L27.3383 8.4ZM28.2343 9.968L27.6583 9.936L27.8183 9.648C27.9463 9.648 28.1383 9.552 28.4263 9.392L28.9062 9.328L28.2343 9.968ZM41.6743 24.752L41.5462 24.624L41.0343 24.464L40.5542 24.08L41.6743 24.208L42.0263 24.72L41.6743 24.752ZM30.2502 22.64L29.9942 22.384L30.0263 22.192L29.9303 21.744L30.0263 21.2L30.4422 22.064L30.2502 22.64ZM31.4662 24.432L31.1462 24.112L31.2103 23.888L31.0823 23.28L31.2103 22.608L31.7222 23.728L31.4662 24.432Z" fill="#ED9B33"/>
<path d="M60.8298 2.256C58.7177 2.768 56.9257 3.248 55.4217 3.664L54.9417 3.28C51.5817 4.336 48.9258 5.392 46.9098 6.416L44.5737 7.792V7.984H45.0537C44.9257 8.272 44.9578 9.488 44.8298 9.776C45.0538 10.128 45.2137 10.384 45.3737 10.544L46.0138 10.032L46.6857 10.128L46.4297 10.416H46.2378L45.7578 10.672L45.5658 10.864L44.8618 12.144V13.168C45.5978 12.848 46.3338 12.496 47.0698 12.08C47.0698 13.072 47.1018 14.064 47.1978 15.056C46.7818 15.344 46.4298 15.568 46.1418 15.792V17.168L46.9738 17.776L46.2057 19.376C46.5257 19.248 46.9418 19.056 47.4538 18.768C47.6138 20.784 47.8377 22.8 48.0938 24.784L47.7098 25.008C47.8058 25.296 47.9338 25.52 48.0298 25.68C47.9338 25.84 47.8377 26.064 47.7417 26.384C47.9657 26.512 48.1898 26.576 48.3498 26.608L48.3818 26.736C47.9018 27.184 47.6777 27.856 47.6777 28.72C48.9897 27.92 50.2057 27.184 51.3577 26.576L51.4858 26.672C51.8698 26.544 52.1578 26.448 52.3818 26.416L52.3498 26.032C52.7978 25.84 53.1178 25.68 53.3097 25.552C55.0378 24.72 56.9257 24.016 59.0057 23.472L59.2617 22.704L58.8457 22.192L59.3258 22.032L59.3577 21.52H59.1978L58.4618 21.904L57.5018 21.968L58.8138 20.912L59.3898 20.976C59.3898 20.816 59.4218 20.592 59.4538 20.304L58.5578 20.592L58.7817 19.696C56.6058 20.464 54.4618 21.392 52.3498 22.448C52.3498 20.112 52.4138 18.096 52.5098 16.4C54.8458 15.536 56.9897 14.8 59.0057 14.192C59.1017 12.752 59.1978 11.472 59.3577 10.352C58.3018 10.64 57.2777 10.928 56.3177 11.248L56.2858 10.64C54.7818 11.312 53.6298 11.792 52.8618 12.08L53.1497 9.392C55.1657 8.656 57.5337 7.92 60.2537 7.216C60.3497 6.832 60.5098 6.288 60.7978 5.616L59.8377 5.872L60.2858 4.848L59.8698 5.136L59.2617 5.168L60.0618 4.496L60.4458 4.592C60.5418 4.336 60.5738 3.952 60.6058 3.408C60.6378 2.864 60.7017 2.48 60.8298 2.256ZM48.5098 8.944H48.2537L47.5177 9.36L46.5578 9.424L47.8377 8.336L48.8937 8.464L48.5098 8.944ZM56.2537 23.152H56.0617L55.6777 23.376L55.0698 23.408L55.8698 22.8L56.4458 22.896L56.2537 23.152Z" fill="#ED9B33"/>
<path d="M86.0977 3.216C85.7457 3.216 85.2018 3.376 84.5298 3.728C83.8578 4.08 83.3138 4.24 82.8978 4.24C82.6098 4.24 82.3538 3.44 82.0658 3.312C81.1058 3.184 80.3378 3.088 79.7298 3.056C78.8658 6.288 78.3218 10.32 78.0338 15.152C76.8818 12.496 76.0177 9.904 75.4737 7.408L74.7057 7.472L74.6097 6.032C73.9697 5.808 73.4898 5.648 73.1698 5.488C70.7058 9.36 69.0737 12.176 68.3377 14L68.2738 12.976C68.1458 11.408 68.0817 9.168 68.0817 6.288L67.2817 6.736L67.3778 7.184L67.1217 8.144L66.4818 6.48L66.9297 5.552V4.944C64.0177 6.128 62.5137 6.704 62.4497 6.736C62.3857 7.44 62.3858 7.856 62.4178 7.984L61.2018 8.912C62.0338 14.896 63.6337 21.104 66.0337 27.568C66.7697 27.408 67.3777 27.28 67.9217 27.248C67.6977 26.8 67.5058 26.416 67.3778 26.064L68.1458 24.848C68.6258 25.552 68.9138 25.968 69.0098 26.064L69.4897 25.744L68.8818 24.784L69.1377 23.792L69.5858 24.24L69.5537 24.464L69.8737 25.392L70.3538 24.912L70.1937 24.24C71.3777 24.528 72.0818 24.752 72.2738 24.912C72.3058 21.712 72.3697 19.76 72.4017 19.088C72.5617 16.88 72.9777 15.024 73.6817 13.488C73.9057 16.784 74.8338 20.816 76.4658 25.52L77.3617 25.36L76.9137 24.624L77.1058 23.632L77.5537 24.08L77.4898 24.336L77.8098 25.072L77.8737 25.264C77.9057 25.264 78.6738 25.008 80.2098 24.528C81.1698 24.272 81.7778 24.112 82.0338 24.08C81.9698 23.696 81.9378 23.28 81.9058 22.8L82.1298 22.832C83.4418 14 84.8498 7.472 86.3857 3.216H86.0977ZM82.1618 4.784L82.0338 5.68L81.5537 6.448L81.4258 4.72L82.1298 3.984L82.2897 4.592L82.1618 4.784ZM66.2257 9.232L66.1297 9.84L65.7137 10.416L65.6497 9.168L66.2257 8.624L66.3538 9.04L66.2257 9.232ZM78.0658 22.32L77.2978 21.2L77.4577 20.4L77.7777 20.752V20.944L78.0658 21.552V22.32ZM64.8818 10.48L64.8498 10.928L64.5617 11.28L64.5298 10.448L64.9137 10.128L64.9777 10.384L64.8818 10.48Z" fill="#ED9B33"/>
<path d="M110.711 5.04C110.711 4.688 110.615 3.728 110.615 3.312C110.615 3.152 110.615 3.024 110.647 2.864C110.231 2.96 109.879 3.024 109.527 3.056C109.623 2.576 109.719 2.224 109.783 2C107.511 2.672 105.207 3.568 102.807 4.656L96.3432 7.44L96.7272 8.272C96.6312 8.528 96.5993 8.976 96.5993 9.648L97.3353 9.264L98.3593 9.232L97.0153 10.32L96.5673 10.224L96.5033 10.416L97.3353 10.864C97.0793 11.184 96.8553 11.44 96.6633 11.632L96.4392 13.296C98.5192 12.208 100.439 11.248 102.231 10.384C102.583 13.936 102.743 17.872 102.743 22.224C100.727 21.712 98.7753 20.976 96.8873 20.048C96.8553 20.176 96.8552 20.24 96.8552 20.24C96.8552 20.496 97.1432 21.2 97.1432 21.456C97.1432 21.552 96.8233 21.872 96.1513 22.416L96.3112 22.672L97.1113 23.056L97.6872 23.824L96.0232 23.312L95.8313 23.792L95.0312 24.528C98.3913 26.416 102.263 27.44 106.583 27.632L106.711 27.28C107.575 18.608 108.055 12.336 108.119 8.4C109.079 8.208 109.783 8.048 110.231 7.92L110.519 7.056L110.071 6.416L110.615 6.256L110.679 5.584H110.359L109.623 6.032L108.599 6.096L109.943 4.944L110.711 5.04ZM108.023 6.64H107.895L107.543 6.832L107.095 6.864L107.671 6.352L108.151 6.416L108.023 6.64ZM107.255 5.872H106.999L106.487 6.128L105.783 6.16L106.743 5.424L107.511 5.488L107.255 5.872ZM98.1992 23.056L97.8473 22.32L98.3272 22.352L98.4232 22.544L98.9672 22.832L99.3832 23.472L98.1992 23.056ZM98.9993 24.624L98.6472 24.112L98.9672 24.08L99.1273 24.208L99.5752 24.368L99.9593 24.752L98.9993 24.624Z" fill="#ED9B33"/>
<path d="M125.875 12.976C124.755 13.328 124.179 13.488 124.147 13.488C123.667 9.872 123.379 6.352 123.315 2.992C122.387 3.408 121.715 3.824 121.299 4.176L120.659 4.88C120.627 4.912 120.563 4.912 120.499 4.912C120.403 4.912 120.211 4.656 119.987 4.656C120.083 4.656 119.731 4.752 118.995 4.944C119.091 4.432 119.219 3.888 119.347 3.344L118.035 3.856C117.459 4.24 117.075 4.528 116.915 4.752L117.075 5.2L116.915 5.456L116.851 6.352L116.339 7.312V4.848C115.731 5.072 115.187 5.168 114.739 5.168C113.779 5.456 113.075 5.712 112.595 5.904C111.923 9.904 111.571 12.56 111.571 13.936C111.571 14.416 111.827 15.536 111.827 16.016C111.827 16.656 111.283 16.88 111.283 17.264C111.059 18.576 110.931 20.368 110.899 22.64C110.867 25.488 110.835 27.28 110.771 28.08H110.835L111.635 26.32C111.571 26.928 111.699 27.216 112.051 27.216C112.275 27.216 112.819 26.864 113.715 26.192C113.683 26.48 113.651 26.736 113.651 26.96C114.195 26.608 114.643 26.32 114.963 26.16C115.123 24.816 115.379 23.024 115.731 20.784C117.619 19.824 119.027 19.184 119.955 18.896C120.435 20.912 121.011 23.056 121.619 25.36L123.507 24.592C123.411 24.112 123.379 23.824 123.379 23.728L123.891 23.6C123.955 23.376 124.051 23.248 124.179 23.152L123.795 22.448L124.019 21.648L124.307 21.904L124.243 22.128L124.435 22.64L124.371 23.056C124.531 23.024 124.723 23.024 124.979 23.056C125.299 23.088 125.491 23.12 125.555 23.12C125.651 23.12 125.747 23.088 125.843 23.056C125.331 20.656 124.947 18.736 124.723 17.296L125.363 17.072C125.587 15.248 125.779 13.904 125.875 12.976ZM121.011 7.12L120.467 6.16L120.723 5.424L121.011 5.68L120.979 5.872L121.139 6.384L121.011 7.12ZM115.507 8.176V8.688L115.219 9.168L115.123 8.272L115.507 7.728L115.603 8.048L115.507 8.176ZM116.563 16.176C116.659 15.184 116.883 14.032 117.171 12.688L118.067 9.232C118.291 10.928 118.611 12.848 119.059 14.928L116.563 16.176Z" fill="#ED9B33"/>
<path d="M139.67 6.576L139.094 7.312L138.39 7.248L138.71 6.736L138.902 6.704L139.446 6.256L139.798 6.16L140.086 5.488L138.582 5.232C139.126 4.112 139.382 3.472 139.382 3.28C139.382 3.152 139.318 2.992 139.222 2.832C139.062 2.544 138.934 2.384 138.902 2.32C136.054 3.664 133.462 5.36 131.094 7.408C127.99 10.096 126.422 12.592 126.422 14.864C126.422 15.792 126.806 16.656 127.606 17.392C128.022 17.808 128.822 18.352 129.974 19.056C130.39 18.96 130.678 18.896 130.902 18.896C131.126 18.896 131.286 19.024 131.414 19.28C131.606 19.632 131.862 19.92 132.214 20.08C132.822 20.336 133.43 20.624 134.038 20.912C134.806 21.36 135.19 21.872 135.19 22.416C135.19 23.504 133.814 25.008 131.094 26.928L132.598 27.024L132.726 26.832L132.918 26.8L133.494 26.384L134.166 26.16L133.142 27.216L132.854 27.248L133.078 27.952C134.262 27.824 134.006 28.336 134.454 28.688C135.99 27.504 137.27 26.256 138.262 24.944C139.638 23.248 140.31 21.68 140.31 20.24C140.31 18.8 139.766 17.68 138.71 16.848C138.358 16.56 137.398 16.048 135.766 15.28C134.71 14.8 134.166 14.224 134.166 13.616C134.166 11.888 136.342 9.712 140.694 7.088L139.67 6.576ZM136.47 7.344H135.926L136.214 7.024H136.342L136.758 6.704L137.302 6.608L136.47 7.344ZM135.19 8.592H134.806L134.966 8.336H135.094L135.382 8.112L135.766 8.048L135.19 8.592ZM135.83 25.264L135.414 25.392L135.51 25.104C135.862 24.88 136.118 24.688 136.278 24.528L135.83 25.264ZM134.646 26.96L134.166 27.024L134.326 26.704L134.486 26.672L134.838 26.416L135.318 26.256L134.646 26.96Z" fill="#ED9B33"/>
<path d="M162.961 11.92C162.961 10.16 162.577 8.56 161.809 7.12L161.489 7.504L159.857 6.864L160.209 7.504L159.409 7.664L159.473 8.176L160.017 8.4L160.241 9.072L159.825 8.976L159.761 8.848L159.313 8.496L159.217 8.304L157.649 8.4L156.433 9.232L157.201 8.016L158.001 7.6V7.536L157.265 6.992L156.817 6.096L158.353 6.896L158.545 7.408L158.769 7.248V5.904L159.217 5.936L159.121 5.776L158.417 5.232L158.001 4.336L159.473 5.136L159.761 5.968L160.209 6L159.473 4.56C158.289 3.696 156.913 3.28 155.313 3.28C151.665 3.28 148.433 4.976 145.585 8.4C142.865 11.664 141.521 15.152 141.521 18.864C141.521 21.648 142.321 23.856 143.953 25.456L143.665 24.848L145.201 25.616L145.489 26.576C146.673 27.216 147.921 27.536 149.265 27.536C152.753 27.536 155.953 25.808 158.833 22.32C161.585 18.992 162.961 15.536 162.961 11.92ZM158.929 10.128L158.897 10L158.577 9.776L158.321 9.328L159.089 9.712L159.249 10.192L158.929 10.128ZM156.337 7.696L156.273 7.536L155.793 7.184L155.473 6.608L156.529 7.12L156.689 7.76L156.337 7.696ZM157.809 14.448C157.809 16.432 157.105 18.32 155.665 20.144C154.161 22.032 152.401 22.992 150.417 22.992C149.137 22.992 148.113 22.512 147.377 21.584C146.673 20.72 146.321 19.632 146.321 18.384C146.321 16.368 147.057 14.448 148.497 12.688C150.033 10.8 151.793 9.84 153.745 9.84C156.273 9.84 157.809 11.856 157.809 14.448ZM146.609 23.12L146.545 22.992L146.129 22.672L145.873 22.16L146.737 22.608L146.897 23.184L146.609 23.12ZM146.897 25.424L146.833 25.296L146.481 24.976L146.193 24.464L147.089 24.912L147.249 25.52L146.897 25.424ZM145.137 24.624L145.041 24.368L144.337 23.856L143.889 22.992L145.425 23.728L145.745 24.752L145.137 24.624Z" fill="#ED9B33"/>
<path d="M181.142 5.616C180.854 5.776 180.566 5.872 180.278 5.904C180.31 5.424 180.374 4.816 180.47 4.08L176.758 4.56L176.534 5.712C176.246 5.872 175.926 6.064 175.51 6.256C175.414 8.272 175.35 10.032 175.35 11.472C175.35 11.984 175.35 12.752 175.382 13.808C175.414 14.864 175.446 15.632 175.446 16.176C173.878 13.936 172.118 10.288 170.166 5.232C169.942 5.712 169.814 6 169.718 6.128L168.854 6.512C168.854 5.648 168.886 5.008 168.918 4.56C168.374 4.656 167.99 4.752 167.702 4.784L167.894 5.008L167.798 5.296L167.894 6.096L167.574 7.056L167.062 5.456L167.382 4.848C166.422 5.072 165.718 5.2 165.238 5.296C165.142 6.096 165.11 6.512 165.11 6.544C164.694 6.832 164.342 7.056 164.118 7.184C164.31 13.776 165.046 20.464 166.294 27.28L167.798 27.376C167.67 26.96 167.574 26.544 167.478 26.064L168.15 25.008L168.758 26.512C169.046 26.288 169.43 25.968 169.942 25.616C169.526 22.224 169.27 19.376 169.238 17.104C170.71 19.056 173.046 21.552 176.214 24.528L176.278 25.264L177.078 25.36L177.782 25.456L177.558 24.176L178.006 23.568L177.782 22.8L178.294 21.84L178.614 22.384L178.518 22.64L178.614 23.504L178.518 23.792C178.646 24.208 178.742 24.496 178.806 24.624C179.35 24.336 179.766 24.08 180.054 23.888C179.958 22.448 179.926 21.04 179.926 19.6C179.926 15.376 180.342 10.704 181.142 5.616ZM166.774 9.328L166.39 8.176L166.774 7.536L166.966 7.888L166.902 8.08L166.966 8.688L166.774 9.328ZM176.854 22.384L176.502 21.264L176.854 20.592L177.11 20.944L177.014 21.104L177.11 21.68L176.854 22.384Z" fill="#ED9B33"/>
<path d="M24.688 10.544C24.688 8.112 23.888 6.256 22.256 4.944C20.752 3.824 18.736 3.248 16.208 3.248C12.752 3.248 9.36 4.24 6 6.192L6.704 6.736L6.512 8.176L7.28 7.664L8.176 7.536L7.024 8.72H6.608L7.344 9.52C6.96 10.544 6.736 11.76 6.704 13.168C7.472 12.592 8.24 12.112 9.008 11.696C9.168 15.504 9.456 19.28 9.904 22.96L8.784 23.152L9.36 25.424L9.584 25.264L10.704 25.04L9.36 26.448L8.336 26.416L8.304 26.448L8.144 27.632C11.28 27.216 14.192 26 16.848 24.016C19.536 22 21.616 19.568 23.056 16.72C24.144 14.544 24.688 12.496 24.688 10.544ZM9.264 8.592L8.464 8.56L8.688 8.176L8.88 8.144L9.424 7.76L10.128 7.632L9.264 8.592ZM18.896 13.264C18.896 14.672 18.416 16.112 17.424 17.552C16.592 18.864 15.536 19.952 14.256 20.88C14.256 17.264 14.448 13.584 14.832 9.904C17.552 9.872 18.896 10.992 18.896 13.264ZM13.104 24.464H12.624L12.752 24.272C12.848 24.272 12.976 24.208 13.2 24.048L13.648 23.952L13.104 24.464ZM11.28 24.464H10.64L10.864 24.176H10.992L11.408 23.856L12.016 23.76L11.28 24.464Z" stroke="black" stroke-width="2" mask="url(#path-1-outside-1_5_26)"/>
<path d="M45.5462 23.568C45.5142 22.896 45.4503 22.416 45.4183 22.064C42.5063 21.072 39.5623 19.856 36.5863 18.352C41.0343 15.248 43.2743 11.856 43.2743 8.144C43.2743 6.352 42.6023 4.976 41.2583 4.016C40.0423 3.184 38.5063 2.768 36.6182 2.768C34.7622 2.768 32.8102 3.184 30.7302 3.984C28.7782 4.688 26.9862 5.648 25.4182 6.864L24.7143 7.344V7.856L24.5543 8.624C24.5543 8.656 24.5543 8.688 24.5543 8.688C24.4583 8.72 24.8423 8.752 25.4503 8.592C25.4183 8.944 26.1542 8.816 26.2502 9.04C26.2822 9.104 26.2822 9.168 26.2822 9.2C26.2822 9.264 26.0903 9.392 25.7383 9.616C25.3863 9.808 25.1943 9.936 25.1943 9.968C25.1943 10 25.1942 10.032 25.2262 10.064L25.0662 10.16C25.1622 10.32 25.4503 10.512 25.4503 10.544C25.4503 10.576 25.4183 10.608 25.3223 10.64L25.4823 11.312L25.5783 11.184L25.8663 11.152L26.5382 10.672L27.5623 10.544L26.2822 11.76L25.6103 11.728C25.7383 12.336 25.8343 12.784 25.9303 13.072C26.5703 12.528 27.3063 12.016 28.1063 11.472C28.2343 15.504 28.6823 20.752 29.4503 27.216C29.7383 26.96 29.9303 26.768 30.0903 26.672L30.3783 26.8L30.4422 26.576L30.2822 25.776L30.4422 24.752L31.0823 26.096L31.5942 25.296L32.5223 26.256C32.9383 26.064 33.2262 25.936 33.3862 25.84C33.2902 24.624 33.2582 23.696 33.2262 23.088C34.9862 23.76 37.0342 24.4 39.3382 25.04C40.3302 25.328 42.3783 25.904 45.4823 26.736L45.4183 26.416H45.3862L45.1623 26.16L44.2343 25.872L43.3703 25.104C44.5543 25.264 45.1943 25.36 45.3543 25.36C45.1623 24.496 45.0343 23.856 44.9703 23.376L45.5462 23.568ZM37.8663 10.064C37.8663 11.44 36.4262 13.04 33.5142 14.8C33.5142 13.872 33.6743 11.792 34.0263 8.592C34.6983 8.4 35.3063 8.304 35.7863 8.304C37.1623 8.304 37.8663 8.88 37.8663 10.064ZM27.3383 8.4L26.2502 8.336L26.5702 7.792H26.8902L27.5942 7.344L28.6182 7.216L27.3383 8.4ZM28.2343 9.968L27.6583 9.936L27.8183 9.648C27.9463 9.648 28.1383 9.552 28.4263 9.392L28.9062 9.328L28.2343 9.968ZM41.6743 24.752L41.5462 24.624L41.0343 24.464L40.5542 24.08L41.6743 24.208L42.0263 24.72L41.6743 24.752ZM30.2502 22.64L29.9942 22.384L30.0263 22.192L29.9303 21.744L30.0263 21.2L30.4422 22.064L30.2502 22.64ZM31.4662 24.432L31.1462 24.112L31.2103 23.888L31.0823 23.28L31.2103 22.608L31.7222 23.728L31.4662 24.432Z" stroke="black" stroke-width="2" mask="url(#path-1-outside-1_5_26)"/>
<path d="M60.8298 2.256C58.7177 2.768 56.9257 3.248 55.4217 3.664L54.9417 3.28C51.5817 4.336 48.9258 5.392 46.9098 6.416L44.5737 7.792V7.984H45.0537C44.9257 8.272 44.9578 9.488 44.8298 9.776C45.0538 10.128 45.2137 10.384 45.3737 10.544L46.0138 10.032L46.6857 10.128L46.4297 10.416H46.2378L45.7578 10.672L45.5658 10.864L44.8618 12.144V13.168C45.5978 12.848 46.3338 12.496 47.0698 12.08C47.0698 13.072 47.1018 14.064 47.1978 15.056C46.7818 15.344 46.4298 15.568 46.1418 15.792V17.168L46.9738 17.776L46.2057 19.376C46.5257 19.248 46.9418 19.056 47.4538 18.768C47.6138 20.784 47.8377 22.8 48.0938 24.784L47.7098 25.008C47.8058 25.296 47.9338 25.52 48.0298 25.68C47.9338 25.84 47.8377 26.064 47.7417 26.384C47.9657 26.512 48.1898 26.576 48.3498 26.608L48.3818 26.736C47.9018 27.184 47.6777 27.856 47.6777 28.72C48.9897 27.92 50.2057 27.184 51.3577 26.576L51.4858 26.672C51.8698 26.544 52.1578 26.448 52.3818 26.416L52.3498 26.032C52.7978 25.84 53.1178 25.68 53.3097 25.552C55.0378 24.72 56.9257 24.016 59.0057 23.472L59.2617 22.704L58.8457 22.192L59.3258 22.032L59.3577 21.52H59.1978L58.4618 21.904L57.5018 21.968L58.8138 20.912L59.3898 20.976C59.3898 20.816 59.4218 20.592 59.4538 20.304L58.5578 20.592L58.7817 19.696C56.6058 20.464 54.4618 21.392 52.3498 22.448C52.3498 20.112 52.4138 18.096 52.5098 16.4C54.8458 15.536 56.9897 14.8 59.0057 14.192C59.1017 12.752 59.1978 11.472 59.3577 10.352C58.3018 10.64 57.2777 10.928 56.3177 11.248L56.2858 10.64C54.7818 11.312 53.6298 11.792 52.8618 12.08L53.1497 9.392C55.1657 8.656 57.5337 7.92 60.2537 7.216C60.3497 6.832 60.5098 6.288 60.7978 5.616L59.8377 5.872L60.2858 4.848L59.8698 5.136L59.2617 5.168L60.0618 4.496L60.4458 4.592C60.5418 4.336 60.5738 3.952 60.6058 3.408C60.6378 2.864 60.7017 2.48 60.8298 2.256ZM48.5098 8.944H48.2537L47.5177 9.36L46.5578 9.424L47.8377 8.336L48.8937 8.464L48.5098 8.944ZM56.2537 23.152H56.0617L55.6777 23.376L55.0698 23.408L55.8698 22.8L56.4458 22.896L56.2537 23.152Z" stroke="black" stroke-width="2" mask="url(#path-1-outside-1_5_26)"/>
<path d="M86.0977 3.216C85.7457 3.216 85.2018 3.376 84.5298 3.728C83.8578 4.08 83.3138 4.24 82.8978 4.24C82.6098 4.24 82.3538 3.44 82.0658 3.312C81.1058 3.184 80.3378 3.088 79.7298 3.056C78.8658 6.288 78.3218 10.32 78.0338 15.152C76.8818 12.496 76.0177 9.904 75.4737 7.408L74.7057 7.472L74.6097 6.032C73.9697 5.808 73.4898 5.648 73.1698 5.488C70.7058 9.36 69.0737 12.176 68.3377 14L68.2738 12.976C68.1458 11.408 68.0817 9.168 68.0817 6.288L67.2817 6.736L67.3778 7.184L67.1217 8.144L66.4818 6.48L66.9297 5.552V4.944C64.0177 6.128 62.5137 6.704 62.4497 6.736C62.3857 7.44 62.3858 7.856 62.4178 7.984L61.2018 8.912C62.0338 14.896 63.6337 21.104 66.0337 27.568C66.7697 27.408 67.3777 27.28 67.9217 27.248C67.6977 26.8 67.5058 26.416 67.3778 26.064L68.1458 24.848C68.6258 25.552 68.9138 25.968 69.0098 26.064L69.4897 25.744L68.8818 24.784L69.1377 23.792L69.5858 24.24L69.5537 24.464L69.8737 25.392L70.3538 24.912L70.1937 24.24C71.3777 24.528 72.0818 24.752 72.2738 24.912C72.3058 21.712 72.3697 19.76 72.4017 19.088C72.5617 16.88 72.9777 15.024 73.6817 13.488C73.9057 16.784 74.8338 20.816 76.4658 25.52L77.3617 25.36L76.9137 24.624L77.1058 23.632L77.5537 24.08L77.4898 24.336L77.8098 25.072L77.8737 25.264C77.9057 25.264 78.6738 25.008 80.2098 24.528C81.1698 24.272 81.7778 24.112 82.0338 24.08C81.9698 23.696 81.9378 23.28 81.9058 22.8L82.1298 22.832C83.4418 14 84.8498 7.472 86.3857 3.216H86.0977ZM82.1618 4.784L82.0338 5.68L81.5537 6.448L81.4258 4.72L82.1298 3.984L82.2897 4.592L82.1618 4.784ZM66.2257 9.232L66.1297 9.84L65.7137 10.416L65.6497 9.168L66.2257 8.624L66.3538 9.04L66.2257 9.232ZM78.0658 22.32L77.2978 21.2L77.4577 20.4L77.7777 20.752V20.944L78.0658 21.552V22.32ZM64.8818 10.48L64.8498 10.928L64.5617 11.28L64.5298 10.448L64.9137 10.128L64.9777 10.384L64.8818 10.48Z" stroke="black" stroke-width="2" mask="url(#path-1-outside-1_5_26)"/>
<path d="M110.711 5.04C110.711 4.688 110.615 3.728 110.615 3.312C110.615 3.152 110.615 3.024 110.647 2.864C110.231 2.96 109.879 3.024 109.527 3.056C109.623 2.576 109.719 2.224 109.783 2C107.511 2.672 105.207 3.568 102.807 4.656L96.3432 7.44L96.7272 8.272C96.6312 8.528 96.5993 8.976 96.5993 9.648L97.3353 9.264L98.3593 9.232L97.0153 10.32L96.5673 10.224L96.5033 10.416L97.3353 10.864C97.0793 11.184 96.8553 11.44 96.6633 11.632L96.4392 13.296C98.5192 12.208 100.439 11.248 102.231 10.384C102.583 13.936 102.743 17.872 102.743 22.224C100.727 21.712 98.7753 20.976 96.8873 20.048C96.8553 20.176 96.8552 20.24 96.8552 20.24C96.8552 20.496 97.1432 21.2 97.1432 21.456C97.1432 21.552 96.8233 21.872 96.1513 22.416L96.3112 22.672L97.1113 23.056L97.6872 23.824L96.0232 23.312L95.8313 23.792L95.0312 24.528C98.3913 26.416 102.263 27.44 106.583 27.632L106.711 27.28C107.575 18.608 108.055 12.336 108.119 8.4C109.079 8.208 109.783 8.048 110.231 7.92L110.519 7.056L110.071 6.416L110.615 6.256L110.679 5.584H110.359L109.623 6.032L108.599 6.096L109.943 4.944L110.711 5.04ZM108.023 6.64H107.895L107.543 6.832L107.095 6.864L107.671 6.352L108.151 6.416L108.023 6.64ZM107.255 5.872H106.999L106.487 6.128L105.783 6.16L106.743 5.424L107.511 5.488L107.255 5.872ZM98.1992 23.056L97.8473 22.32L98.3272 22.352L98.4232 22.544L98.9672 22.832L99.3832 23.472L98.1992 23.056ZM98.9993 24.624L98.6472 24.112L98.9672 24.08L99.1273 24.208L99.5752 24.368L99.9593 24.752L98.9993 24.624Z" stroke="black" stroke-width="2" mask="url(#path-1-outside-1_5_26)"/>
<path d="M125.875 12.976C124.755 13.328 124.179 13.488 124.147 13.488C123.667 9.872 123.379 6.352 123.315 2.992C122.387 3.408 121.715 3.824 121.299 4.176L120.659 4.88C120.627 4.912 120.563 4.912 120.499 4.912C120.403 4.912 120.211 4.656 119.987 4.656C120.083 4.656 119.731 4.752 118.995 4.944C119.091 4.432 119.219 3.888 119.347 3.344L118.035 3.856C117.459 4.24 117.075 4.528 116.915 4.752L117.075 5.2L116.915 5.456L116.851 6.352L116.339 7.312V4.848C115.731 5.072 115.187 5.168 114.739 5.168C113.779 5.456 113.075 5.712 112.595 5.904C111.923 9.904 111.571 12.56 111.571 13.936C111.571 14.416 111.827 15.536 111.827 16.016C111.827 16.656 111.283 16.88 111.283 17.264C111.059 18.576 110.931 20.368 110.899 22.64C110.867 25.488 110.835 27.28 110.771 28.08H110.835L111.635 26.32C111.571 26.928 111.699 27.216 112.051 27.216C112.275 27.216 112.819 26.864 113.715 26.192C113.683 26.48 113.651 26.736 113.651 26.96C114.195 26.608 114.643 26.32 114.963 26.16C115.123 24.816 115.379 23.024 115.731 20.784C117.619 19.824 119.027 19.184 119.955 18.896C120.435 20.912 121.011 23.056 121.619 25.36L123.507 24.592C123.411 24.112 123.379 23.824 123.379 23.728L123.891 23.6C123.955 23.376 124.051 23.248 124.179 23.152L123.795 22.448L124.019 21.648L124.307 21.904L124.243 22.128L124.435 22.64L124.371 23.056C124.531 23.024 124.723 23.024 124.979 23.056C125.299 23.088 125.491 23.12 125.555 23.12C125.651 23.12 125.747 23.088 125.843 23.056C125.331 20.656 124.947 18.736 124.723 17.296L125.363 17.072C125.587 15.248 125.779 13.904 125.875 12.976ZM121.011 7.12L120.467 6.16L120.723 5.424L121.011 5.68L120.979 5.872L121.139 6.384L121.011 7.12ZM115.507 8.176V8.688L115.219 9.168L115.123 8.272L115.507 7.728L115.603 8.048L115.507 8.176ZM116.563 16.176C116.659 15.184 116.883 14.032 117.171 12.688L118.067 9.232C118.291 10.928 118.611 12.848 119.059 14.928L116.563 16.176Z" stroke="black" stroke-width="2" mask="url(#path-1-outside-1_5_26)"/>
<path d="M139.67 6.576L139.094 7.312L138.39 7.248L138.71 6.736L138.902 6.704L139.446 6.256L139.798 6.16L140.086 5.488L138.582 5.232C139.126 4.112 139.382 3.472 139.382 3.28C139.382 3.152 139.318 2.992 139.222 2.832C139.062 2.544 138.934 2.384 138.902 2.32C136.054 3.664 133.462 5.36 131.094 7.408C127.99 10.096 126.422 12.592 126.422 14.864C126.422 15.792 126.806 16.656 127.606 17.392C128.022 17.808 128.822 18.352 129.974 19.056C130.39 18.96 130.678 18.896 130.902 18.896C131.126 18.896 131.286 19.024 131.414 19.28C131.606 19.632 131.862 19.92 132.214 20.08C132.822 20.336 133.43 20.624 134.038 20.912C134.806 21.36 135.19 21.872 135.19 22.416C135.19 23.504 133.814 25.008 131.094 26.928L132.598 27.024L132.726 26.832L132.918 26.8L133.494 26.384L134.166 26.16L133.142 27.216L132.854 27.248L133.078 27.952C134.262 27.824 134.006 28.336 134.454 28.688C135.99 27.504 137.27 26.256 138.262 24.944C139.638 23.248 140.31 21.68 140.31 20.24C140.31 18.8 139.766 17.68 138.71 16.848C138.358 16.56 137.398 16.048 135.766 15.28C134.71 14.8 134.166 14.224 134.166 13.616C134.166 11.888 136.342 9.712 140.694 7.088L139.67 6.576ZM136.47 7.344H135.926L136.214 7.024H136.342L136.758 6.704L137.302 6.608L136.47 7.344ZM135.19 8.592H134.806L134.966 8.336H135.094L135.382 8.112L135.766 8.048L135.19 8.592ZM135.83 25.264L135.414 25.392L135.51 25.104C135.862 24.88 136.118 24.688 136.278 24.528L135.83 25.264ZM134.646 26.96L134.166 27.024L134.326 26.704L134.486 26.672L134.838 26.416L135.318 26.256L134.646 26.96Z" stroke="black" stroke-width="2" mask="url(#path-1-outside-1_5_26)"/>
<path d="M162.961 11.92C162.961 10.16 162.577 8.56 161.809 7.12L161.489 7.504L159.857 6.864L160.209 7.504L159.409 7.664L159.473 8.176L160.017 8.4L160.241 9.072L159.825 8.976L159.761 8.848L159.313 8.496L159.217 8.304L157.649 8.4L156.433 9.232L157.201 8.016L158.001 7.6V7.536L157.265 6.992L156.817 6.096L158.353 6.896L158.545 7.408L158.769 7.248V5.904L159.217 5.936L159.121 5.776L158.417 5.232L158.001 4.336L159.473 5.136L159.761 5.968L160.209 6L159.473 4.56C158.289 3.696 156.913 3.28 155.313 3.28C151.665 3.28 148.433 4.976 145.585 8.4C142.865 11.664 141.521 15.152 141.521 18.864C141.521 21.648 142.321 23.856 143.953 25.456L143.665 24.848L145.201 25.616L145.489 26.576C146.673 27.216 147.921 27.536 149.265 27.536C152.753 27.536 155.953 25.808 158.833 22.32C161.585 18.992 162.961 15.536 162.961 11.92ZM158.929 10.128L158.897 10L158.577 9.776L158.321 9.328L159.089 9.712L159.249 10.192L158.929 10.128ZM156.337 7.696L156.273 7.536L155.793 7.184L155.473 6.608L156.529 7.12L156.689 7.76L156.337 7.696ZM157.809 14.448C157.809 16.432 157.105 18.32 155.665 20.144C154.161 22.032 152.401 22.992 150.417 22.992C149.137 22.992 148.113 22.512 147.377 21.584C146.673 20.72 146.321 19.632 146.321 18.384C146.321 16.368 147.057 14.448 148.497 12.688C150.033 10.8 151.793 9.84 153.745 9.84C156.273 9.84 157.809 11.856 157.809 14.448ZM146.609 23.12L146.545 22.992L146.129 22.672L145.873 22.16L146.737 22.608L146.897 23.184L146.609 23.12ZM146.897 25.424L146.833 25.296L146.481 24.976L146.193 24.464L147.089 24.912L147.249 25.52L146.897 25.424ZM145.137 24.624L145.041 24.368L144.337 23.856L143.889 22.992L145.425 23.728L145.745 24.752L145.137 24.624Z" stroke="black" stroke-width="2" mask="url(#path-1-outside-1_5_26)"/>
<path d="M181.142 5.616C180.854 5.776 180.566 5.872 180.278 5.904C180.31 5.424 180.374 4.816 180.47 4.08L176.758 4.56L176.534 5.712C176.246 5.872 175.926 6.064 175.51 6.256C175.414 8.272 175.35 10.032 175.35 11.472C175.35 11.984 175.35 12.752 175.382 13.808C175.414 14.864 175.446 15.632 175.446 16.176C173.878 13.936 172.118 10.288 170.166 5.232C169.942 5.712 169.814 6 169.718 6.128L168.854 6.512C168.854 5.648 168.886 5.008 168.918 4.56C168.374 4.656 167.99 4.752 167.702 4.784L167.894 5.008L167.798 5.296L167.894 6.096L167.574 7.056L167.062 5.456L167.382 4.848C166.422 5.072 165.718 5.2 165.238 5.296C165.142 6.096 165.11 6.512 165.11 6.544C164.694 6.832 164.342 7.056 164.118 7.184C164.31 13.776 165.046 20.464 166.294 27.28L167.798 27.376C167.67 26.96 167.574 26.544 167.478 26.064L168.15 25.008L168.758 26.512C169.046 26.288 169.43 25.968 169.942 25.616C169.526 22.224 169.27 19.376 169.238 17.104C170.71 19.056 173.046 21.552 176.214 24.528L176.278 25.264L177.078 25.36L177.782 25.456L177.558 24.176L178.006 23.568L177.782 22.8L178.294 21.84L178.614 22.384L178.518 22.64L178.614 23.504L178.518 23.792C178.646 24.208 178.742 24.496 178.806 24.624C179.35 24.336 179.766 24.08 180.054 23.888C179.958 22.448 179.926 21.04 179.926 19.6C179.926 15.376 180.342 10.704 181.142 5.616ZM166.774 9.328L166.39 8.176L166.774 7.536L166.966 7.888L166.902 8.08L166.966 8.688L166.774 9.328ZM176.854 22.384L176.502 21.264L176.854 20.592L177.11 20.944L177.014 21.104L177.11 21.68L176.854 22.384Z" stroke="black" stroke-width="2" mask="url(#path-1-outside-1_5_26)"/>
</g>
<defs>
<filter id="filter0_d_5_26" x="0.212036" y="0.524902" width="186.236" height="37.9761" filterUnits="userSpaceOnUse" color-interpolation-filters="sRGB">
<feFlood flood-opacity="0" result="BackgroundImageFix"/>
<feColorMatrix in="SourceAlpha" type="matrix" values="0 0 0 0 0 0 0 0 0 0 0 0 0 0 0 0 0 0 127 0" result="hardAlpha"/>
<feOffset dy="4"/>
<feGaussianBlur stdDeviation="2"/>
<feComposite in2="hardAlpha" operator="out"/>
<feColorMatrix type="matrix" values="0 0 0 0 0 0 0 0 0 0 0 0 0 0 0 0 0 0 0.25 0"/>
<feBlend mode="normal" in2="BackgroundImageFix" result="effect1_dropShadow_5_26"/>
<feBlend mode="normal" in="SourceGraphic" in2="effect1_dropShadow_5_26" result="shape"/>
</filter>
</defs>
</svg>
